<mxfile host="app.diagrams.net" modified="2020-04-15T01:20:31.788Z" agent="5.0 (Macintosh; Intel Mac OS X 10_14_5) AppleWebKit/537.36 (KHTML, like Gecko) Chrome/80.0.3987.149 Safari/537.36" etag="juKMVQO0p9nbmeyzgydU" version="12.9.4" type="github">
  <diagram id="9DSD44EiL1zM0zoMfaHi" name="Page-1">
    <mxGraphModel dx="867" dy="528" grid="1" gridSize="10" guides="1" tooltips="1" connect="1" arrows="1" fold="1" page="1" pageScale="1" pageWidth="827" pageHeight="1169" math="0" shadow="0">
      <root>
        <mxCell id="0" />
        <mxCell id="1" parent="0" />
        <mxCell id="5IehXUCwcUDqPiWsVBqS-1" value="" style="rounded=1;whiteSpace=wrap;html=1;fillColor=#fff2cc;strokeColor=#d6b656;" parent="1" vertex="1">
          <mxGeometry x="160" y="340" width="480" height="40" as="geometry" />
        </mxCell>
        <mxCell id="5IehXUCwcUDqPiWsVBqS-2" value="PC" style="rounded=1;whiteSpace=wrap;html=1;fillColor=#d5e8d4;strokeColor=#82b366;" parent="1" vertex="1">
          <mxGeometry x="200" y="345" width="80" height="30" as="geometry" />
        </mxCell>
        <mxCell id="5IehXUCwcUDqPiWsVBqS-3" value="移动端" style="rounded=1;whiteSpace=wrap;html=1;fillColor=#d5e8d4;strokeColor=#82b366;" parent="1" vertex="1">
          <mxGeometry x="334" y="345" width="80" height="30" as="geometry" />
        </mxCell>
        <mxCell id="5IehXUCwcUDqPiWsVBqS-4" value="第三方" style="rounded=1;whiteSpace=wrap;html=1;fillColor=#d5e8d4;strokeColor=#82b366;" parent="1" vertex="1">
          <mxGeometry x="460" y="345" width="80" height="30" as="geometry" />
        </mxCell>
        <mxCell id="5IehXUCwcUDqPiWsVBqS-5" value="" style="rounded=1;whiteSpace=wrap;html=1;fillColor=#ffe6cc;strokeColor=#d79b00;" parent="1" vertex="1">
          <mxGeometry x="160" y="440" width="400" height="200" as="geometry" />
        </mxCell>
        <mxCell id="llIPs06bU5CNEv9SvTmw-3" value="" style="shape=singleArrow;direction=south;whiteSpace=wrap;html=1;fillColor=#60a917;strokeColor=#2D7600;fontColor=#ffffff;" vertex="1" parent="1">
          <mxGeometry x="220" y="380" width="20" height="60" as="geometry" />
        </mxCell>
        <mxCell id="llIPs06bU5CNEv9SvTmw-4" value="" style="shape=singleArrow;direction=north;whiteSpace=wrap;html=1;fillColor=#60a917;strokeColor=#2D7600;fontColor=#ffffff;" vertex="1" parent="1">
          <mxGeometry x="350" y="380" width="20" height="60" as="geometry" />
        </mxCell>
      </root>
    </mxGraphModel>
  </diagram>
</mxfile>
